<svg width="45" height="46" viewBox="0 0 45 46" fill="none" xmlns="http://www.w3.org/2000/svg">
<g id="Saint Barth&#195;&#169;lemy (BL)" clip-path="url(#clip0_110_184)">
<mask id="mask0_110_184" style="mask-type:alpha" maskUnits="userSpaceOnUse" x="0" y="0" width="45" height="46">
<circle id="Ellipse 9" cx="22.5" cy="22.6245" r="22.5" fill="#C4C4C4"/>
</mask>
<g mask="url(#mask0_110_184)">
<path id="Vector" d="M-8 -0.875488H72V59.1245H-8V-0.875488Z" fill="#DE2910"/>
<path id="Vector_2" d="M1.59996 21.3245L6.99989 5.12451L12.3998 21.3245L-2 11.4245H15.9998L1.59996 21.3245Z" fill="#FFDE00"/>
<path id="Vector_3" d="M25.0211 5.43484L19.4639 6.66636L23.1708 2.34678L22.8072 8.16037L19.7233 3.01359L25.0211 5.43484Z" fill="#FFDE00"/>
<path id="Vector_4" d="M30.6297 12.5429L25.0299 11.5227L30.1219 8.97889L27.5321 14.1964L26.6857 8.25643L30.6297 12.5429Z" fill="#FFDE00"/>
<path id="Vector_5" d="M29.8128 22.5152L25.1159 19.2997L30.8026 19.0539L26.31 22.7615L27.9598 16.9928L29.8128 22.5152Z" fill="#FFDE00"/>
<path id="Vector_6" d="M22.7486 29.0299L19.6581 24.2498L24.9985 26.2195L19.4225 27.9042L23.1723 23.2203L22.7486 29.0299Z" fill="#FFDE00"/>
</g>
</g>
<defs>
<clipPath id="clip0_110_184">
<rect width="45" height="45" fill="white" transform="translate(0 0.124512)"/>
</clipPath>
</defs>
</svg>
