<svg width="45" height="45" viewBox="0 0 45 45" fill="none" xmlns="http://www.w3.org/2000/svg">
<circle cx="22.5" cy="22.5" r="22.5" fill="#FB9C46"/>
<path d="M26.91 11.4165C27.423 11.4153 27.8286 11.8139 27.8298 12.3453L27.831 13.251C31.1595 13.5119 33.3583 15.78 33.3619 19.2583L33.375 29.4394C33.3798 33.2317 30.9973 35.565 27.1784 35.5711L17.8502 35.5832C14.0552 35.588 11.6429 33.1991 11.6381 29.396L11.625 19.3344C11.6202 15.8332 13.7414 13.5711 17.07 13.2655L17.0688 12.3597C17.0676 11.8283 17.4613 11.4286 17.9862 11.4286C18.5111 11.4274 18.9048 11.8259 18.906 12.3573L18.9072 13.2027L25.9938 13.1931L25.9926 12.3477C25.9914 11.8163 26.3851 11.4177 26.91 11.4165ZM27.3968 28.565H27.3848C26.836 28.5783 26.3958 29.0385 26.4077 29.594C26.4089 30.1496 26.8515 30.6073 27.4003 30.6194C27.9599 30.6182 28.4132 30.158 28.412 29.5904C28.412 29.0228 27.9575 28.565 27.3968 28.565ZM17.5663 28.5663C17.0175 28.5904 16.588 29.0506 16.5892 29.6061C16.6142 30.1617 17.0676 30.5964 17.6164 30.5711C18.1544 30.5469 18.5827 30.0868 18.5577 29.5312C18.5457 28.9878 18.1031 28.565 17.5663 28.5663ZM22.4815 28.5602C21.9327 28.5856 21.5044 29.0445 21.5044 29.6001C21.5295 30.1556 21.9828 30.5892 22.5316 30.565C23.0685 30.5397 23.498 30.0807 23.4729 29.524C23.461 28.9817 23.0184 28.559 22.4815 28.5602ZM17.5603 24.2184C17.0115 24.2426 16.5832 24.7027 16.5844 25.2583C16.6083 25.8138 17.0628 26.2486 17.6116 26.2233C18.1485 26.1991 18.5768 25.739 18.5517 25.1834C18.5398 24.6399 18.0983 24.2172 17.5603 24.2184ZM22.4767 24.1762C21.9279 24.2003 21.4985 24.6605 21.4997 25.216C21.5235 25.7716 21.9781 26.2051 22.5268 26.181C23.0637 26.1556 23.492 25.6967 23.4681 25.1411C23.455 24.5977 23.0136 24.175 22.4767 24.1762ZM27.392 24.1822C26.8432 24.1943 26.4137 24.6411 26.4149 25.1967V25.21C26.4268 25.7655 26.8802 26.187 27.4302 26.175C27.967 26.1617 28.3953 25.7015 28.3834 25.146C28.3583 24.6146 27.9277 24.181 27.392 24.1822ZM25.9962 15.053L18.9096 15.0626L18.9108 16.0397C18.9108 16.5602 18.5183 16.9709 17.9934 16.9709C17.4684 16.9721 17.0735 16.5626 17.0735 16.0421L17.0724 15.1122C14.746 15.3453 13.4587 16.7124 13.4623 19.332L13.4635 19.7076L31.5258 19.6834V19.2607C31.4745 16.6641 30.1717 15.3018 27.8334 15.0989L27.8346 16.0288C27.8346 16.5481 27.4302 16.96 26.9172 16.96C26.3922 16.9612 25.9973 16.5506 25.9973 16.0312L25.9962 15.053Z" fill="white"/>
</svg>
